<svg width="337" height="21" viewBox="0 0 337 21" fill="none" xmlns="http://www.w3.org/2000/svg">
<g clip-path="url(#clip0)">
<path fill-rule="evenodd" clip-rule="evenodd" d="M0 1.50024C0 0.671818 0.671573 0.000244141 1.5 0.000244141H30.5C31.3284 0.000244141 32 0.671817 32 1.50024V19.5002C32 20.3287 31.3284 21.0002 30.5 21.0002H1.5C0.671573 21.0002 0 20.3287 0 19.5002V1.50024Z" fill="#F4F6F7"/>
<path fill-rule="evenodd" clip-rule="evenodd" d="M0 1.50024C0 0.671817 0.671573 0.000244141 1.5 0.000244141H30.5C31.3284 0.000244141 32 0.671817 32 1.50024V5.00024H0V1.50024Z" fill="#4095DB"/>
<path fill-rule="evenodd" clip-rule="evenodd" d="M0 16.0002H32V19.5002C32 20.3287 31.3284 21.0002 30.5 21.0002H1.5C0.671573 21.0002 0 20.3287 0 19.5002V16.0002Z" fill="#F4B662"/>
<path fill-rule="evenodd" clip-rule="evenodd" d="M20.1405 7.28486C19.8291 7.14876 19.3394 7.00024 18.7294 7.00024C17.1725 7.00024 16.0766 7.9206 16.0675 9.23834C16.0576 10.213 16.8495 10.7567 17.4466 11.0806C18.0602 11.4127 18.2664 11.6252 18.2639 11.9222C18.2597 12.3764 17.7741 12.5845 17.3214 12.5845C16.6909 12.5845 16.356 12.482 15.8381 12.2288L15.6355 12.1209L15.4153 13.6388C15.7825 13.8277 16.4632 13.9916 17.1697 14.0002C18.8243 14.0002 19.8995 13.0911 19.9121 11.6839C19.9177 10.911 19.4981 10.325 18.5893 9.84132C18.039 9.52696 17.7013 9.31866 17.7052 9.00039C17.7055 8.71847 17.9905 8.41683 18.6073 8.41683C19.1224 8.40762 19.4952 8.53951 19.7858 8.67731L19.9272 8.75493L20.1405 7.28486ZM12.8536 13.8997L13.8388 7.11842H15.4135L14.4284 13.8997H12.8536ZM22.8646 9.60007C22.8646 9.60007 22.3678 11.1057 22.2373 11.4955H23.5446C23.4824 11.1565 23.1802 9.53788 23.1802 9.53788L23.0739 8.95302C23.0319 9.08742 22.9732 9.26558 22.9286 9.40101C22.8889 9.52171 22.8603 9.60847 22.8646 9.60007ZM24.1801 7.12533H22.9631C22.5856 7.12533 22.3031 7.2453 22.1377 7.68746L19.7991 13.9021H21.4531C21.4531 13.9021 21.7229 13.0661 21.7842 12.8826C21.869 12.8826 22.2689 12.8834 22.6929 12.8842C23.171 12.8851 23.6796 12.8861 23.8011 12.8861C23.8483 13.1228 23.9929 13.9021 23.9929 13.9021H25.4545L24.1801 7.12533ZM11.5325 7.12413L9.99122 11.7473L9.82612 10.8075L9.27428 7.69166C9.17908 7.26193 8.9024 7.13454 8.56042 7.11952H6.02099L6 7.26003C6.61781 7.43565 7.17026 7.6889 7.65441 8.00388L9.05479 13.8938L10.7214 13.8927L13.2013 7.12413H11.5325Z" fill="#0071CE"/>
<path fill-rule="evenodd" clip-rule="evenodd" d="M0 1.50024C0 0.671818 0.671573 0.000244141 1.5 0.000244141H30.5C31.3284 0.000244141 32 0.671817 32 1.50024V19.5002C32 20.3287 31.3284 21.0002 30.5 21.0002H1.5C0.671573 21.0002 0 20.3287 0 19.5002V1.50024Z" fill="#E5E5E5" fill-opacity="0.01"/>
</g>
<g clip-path="url(#clip1)">
<path fill-rule="evenodd" clip-rule="evenodd" d="M122 1.50024C122 0.671818 122.672 0.000244141 123.5 0.000244141H152.5C153.328 0.000244141 154 0.671817 154 1.50024V19.5002C154 20.3287 153.328 21.0002 152.5 21.0002H123.5C122.672 21.0002 122 20.3287 122 19.5002V1.50024Z" fill="#F4F6F7"/>
<path fill-rule="evenodd" clip-rule="evenodd" d="M134.5 16.0002C137.538 16.0002 140 13.5378 140 10.5002C140 7.46268 137.538 5.00024 134.5 5.00024C131.462 5.00024 129 7.46268 129 10.5002C129 13.5378 131.462 16.0002 134.5 16.0002Z" fill="#D8232A"/>
<path fill-rule="evenodd" clip-rule="evenodd" d="M138 14.7431C138.951 15.5284 140.17 16.0002 141.5 16.0002C144.538 16.0002 147 13.5378 147 10.5002C147 7.46268 144.538 5.00024 141.5 5.00024C140.17 5.00024 138.951 5.47206 138 6.25741C139.222 7.2662 140 8.79231 140 10.5002C140 12.2082 139.222 13.7343 138 14.7431Z" fill="#ED9F2D"/>
<path fill-rule="evenodd" clip-rule="evenodd" d="M138 6.25732C136.778 7.26612 136 8.79222 136 10.5002C136 12.2081 136.778 13.7342 138 14.743C139.222 13.7342 140 12.2081 140 10.5002C140 8.79222 139.222 7.26612 138 6.25732Z" fill="#D8232A"/>
<mask id="mask0" mask-type="alpha" maskUnits="userSpaceOnUse" x="136" y="6" width="4" height="9">
<path fill-rule="evenodd" clip-rule="evenodd" d="M138 6.25732C136.778 7.26612 136 8.79222 136 10.5002C136 12.2081 136.778 13.7342 138 14.743C139.222 13.7342 140 12.2081 140 10.5002C140 8.79222 139.222 7.26612 138 6.25732Z" fill="white"/>
</mask>
<g mask="url(#mask0)">
<path fill-rule="evenodd" clip-rule="evenodd" d="M135 7.00024H141V8.00024H135V7.00024ZM135 9.00024H141V10.0002H135V9.00024ZM141 11.0002H135V12.0002H141V11.0002ZM135 13.0002H141V14.0002H135V13.0002ZM141 15.0002H135V16.0002H141V15.0002Z" fill="#ED9F2D"/>
</g>
<path fill-rule="evenodd" clip-rule="evenodd" d="M122 1.50024C122 0.671818 122.672 0.000244141 123.5 0.000244141H152.5C153.328 0.000244141 154 0.671817 154 1.50024V19.5002C154 20.3287 153.328 21.0002 152.5 21.0002H123.5C122.672 21.0002 122 20.3287 122 19.5002V1.50024Z" fill="#E5E5E5" fill-opacity="0.01"/>
</g>
<g clip-path="url(#clip2)">
<path fill-rule="evenodd" clip-rule="evenodd" d="M61 1.50024C61 0.671818 61.6716 0.000244141 62.5 0.000244141H91.5C92.3284 0.000244141 93 0.671817 93 1.50024V19.5002C93 20.3287 92.3284 21.0002 91.5 21.0002H62.5C61.6716 21.0002 61 20.3287 61 19.5002V1.50024Z" fill="url(#paint0_radial)"/>
<path fill-rule="evenodd" clip-rule="evenodd" d="M61 1.50024C61 0.671818 61.6716 0.000244141 62.5 0.000244141H91.5C92.3284 0.000244141 93 0.671817 93 1.50024V19.5002C93 20.3287 92.3284 21.0002 91.5 21.0002H62.5C61.6716 21.0002 61 20.3287 61 19.5002V1.50024Z" fill="#E5E5E5" fill-opacity="0.01"/>
<mask id="path-15-outside-1" maskUnits="userSpaceOnUse" x="64.568" y="7.00024" width="25" height="7" fill="black">
<rect fill="white" x="64.568" y="7.00024" width="25" height="7"/>
<path fill-rule="evenodd" clip-rule="evenodd" d="M68.3964 11.0675L69.0633 9.23274H69.0776L69.7229 11.0675H68.3964ZM68.504 8.00024L66.568 13.0002H67.7009L68.1024 11.8868H70.0169L70.4041 13.0002H71.5729L69.6584 8.00024H68.504ZM72.0174 8.00024V13.0002H73.0715V9.49184H73.0858L74.3406 13.0002H75.2082L76.4631 9.45683H76.4774V13.0002H77.5314V8.00024H75.9468L74.8139 11.4386H74.7995L73.6021 8.00024H72.0174ZM78.5209 8.00024V13.0002H82.4073V12.0759H79.6467V10.8504H82.1276V9.99604H79.6467V8.92461H82.3499V8.00024H78.5209ZM84.4221 10.3812L82.6367 13.0002H83.8987L85.0388 11.2706L86.1573 13.0002H87.4982L85.7128 10.3882L87.3548 8.00024H86.1215L85.0818 9.59688L84.0779 8.00024H82.7729L84.4221 10.3812Z"/>
</mask>
<path fill-rule="evenodd" clip-rule="evenodd" d="M68.3964 11.0675L69.0633 9.23274H69.0776L69.7229 11.0675H68.3964ZM68.504 8.00024L66.568 13.0002H67.7009L68.1024 11.8868H70.0169L70.4041 13.0002H71.5729L69.6584 8.00024H68.504ZM72.0174 8.00024V13.0002H73.0715V9.49184H73.0858L74.3406 13.0002H75.2082L76.4631 9.45683H76.4774V13.0002H77.5314V8.00024H75.9468L74.8139 11.4386H74.7995L73.6021 8.00024H72.0174ZM78.5209 8.00024V13.0002H82.4073V12.0759H79.6467V10.8504H82.1276V9.99604H79.6467V8.92461H82.3499V8.00024H78.5209ZM84.4221 10.3812L82.6367 13.0002H83.8987L85.0388 11.2706L86.1573 13.0002H87.4982L85.7128 10.3882L87.3548 8.00024H86.1215L85.0818 9.59688L84.0779 8.00024H82.7729L84.4221 10.3812Z" fill="#1793C0" fill-opacity="0.01"/>
<path d="M68.3964 11.0675L67.4566 10.7259L66.969 12.0675H68.3964V11.0675ZM69.0633 9.23274V8.23274H68.3627L68.1234 8.89115L69.0633 9.23274ZM69.0776 9.23274L70.021 8.90093L69.7859 8.23274H69.0776V9.23274ZM69.7229 11.0675V12.0675H71.1347L70.6663 10.7357L69.7229 11.0675ZM68.504 8.00024V7.00024H67.8188L67.5714 7.63917L68.504 8.00024ZM66.568 13.0002L65.6355 12.6392L65.1085 14.0002H66.568V13.0002ZM67.7009 13.0002V14.0002H68.4033L68.6416 13.3395L67.7009 13.0002ZM68.1024 11.8868V10.8868H67.4L67.1617 11.5476L68.1024 11.8868ZM70.0169 11.8868L70.9614 11.5583L70.7279 10.8868H70.0169V11.8868ZM70.4041 13.0002L69.4596 13.3287L69.6931 14.0002H70.4041V13.0002ZM71.5729 13.0002V14.0002H73.0266L72.5068 12.6427L71.5729 13.0002ZM69.6584 8.00024L70.5923 7.64266L70.3463 7.00024H69.6584V8.00024ZM72.0174 8.00024V7.00024H71.0174V8.00024H72.0174ZM72.0174 13.0002H71.0174V14.0002H72.0174V13.0002ZM73.0715 13.0002V14.0002H74.0715V13.0002H73.0715ZM73.0715 9.49184V8.49184H72.0715V9.49184H73.0715ZM73.0858 9.49184L74.0274 9.15507L73.7902 8.49184H73.0858V9.49184ZM74.3406 13.0002L73.399 13.337L73.6363 14.0002H74.3406V13.0002ZM75.2082 13.0002V14.0002H75.915L76.1509 13.3341L75.2082 13.0002ZM76.4631 9.45683V8.45683H75.7563L75.5204 9.12302L76.4631 9.45683ZM76.4774 9.45683H77.4774V8.45683H76.4774V9.45683ZM76.4774 13.0002H75.4774V14.0002H76.4774V13.0002ZM77.5314 13.0002V14.0002H78.5314V13.0002H77.5314ZM77.5314 8.00024H78.5314V7.00024H77.5314V8.00024ZM75.9468 8.00024V7.00024H75.2234L74.997 7.6873L75.9468 8.00024ZM74.8139 11.4386V12.4386H75.5373L75.7636 11.7516L74.8139 11.4386ZM74.7995 11.4386L73.8552 11.7675L74.0889 12.4386H74.7995V11.4386ZM73.6021 8.00024L74.5465 7.67136L74.3127 7.00024H73.6021V8.00024ZM78.5209 8.00024V7.00024H77.5209V8.00024H78.5209ZM78.5209 13.0002H77.5209V14.0002H78.5209V13.0002ZM82.4073 13.0002V14.0002H83.4073V13.0002H82.4073ZM82.4073 12.0759H83.4073V11.0759H82.4073V12.0759ZM79.6467 12.0759H78.6467V13.0759H79.6467V12.0759ZM79.6467 10.8504V9.85038H78.6467V10.8504H79.6467ZM82.1276 10.8504V11.8504H83.1276V10.8504H82.1276ZM82.1276 9.99604H83.1276V8.99604H82.1276V9.99604ZM79.6467 9.99604H78.6467V10.996H79.6467V9.99604ZM79.6467 8.92461V7.92461H78.6467V8.92461H79.6467ZM82.3499 8.92461V9.92461H83.3499V8.92461H82.3499ZM82.3499 8.00024H83.3499V7.00024H82.3499V8.00024ZM84.4221 10.3812L85.2484 10.9445L85.6355 10.3767L85.2442 9.81179L84.4221 10.3812ZM82.6367 13.0002L81.8104 12.437L80.7448 14.0002H82.6367V13.0002ZM83.8987 13.0002V14.0002H84.4372L84.7336 13.5506L83.8987 13.0002ZM85.0388 11.2706L85.8785 10.7275L85.0467 9.44137L84.2038 10.7202L85.0388 11.2706ZM86.1573 13.0002L85.3176 13.5433L85.6131 14.0002H86.1573V13.0002ZM87.4982 13.0002V14.0002H89.393L88.3238 12.4359L87.4982 13.0002ZM85.7128 10.3882L84.8888 9.8216L84.5003 10.3865L84.8872 10.9525L85.7128 10.3882ZM87.3548 8.00024L88.1788 8.56684L89.256 7.00024H87.3548V8.00024ZM86.1215 8.00024V7.00024H85.5793L85.2835 7.45456L86.1215 8.00024ZM85.0818 9.59688L84.2352 10.1291L85.067 11.4521L85.9198 10.1426L85.0818 9.59688ZM84.0779 8.00024L84.9245 7.46798L84.6304 7.00024H84.0779V8.00024ZM82.7729 8.00024V7.00024H80.8638L81.9509 8.56965L82.7729 8.00024ZM69.3363 11.4091L70.0031 9.57433L68.1234 8.89115L67.4566 10.7259L69.3363 11.4091ZM69.0633 10.2327H69.0776V8.23274H69.0633V10.2327ZM68.1343 9.56454L68.7796 11.3993L70.6663 10.7357L70.021 8.90093L68.1343 9.56454ZM69.7229 10.0675H68.3964V12.0675H69.7229V10.0675ZM67.5714 7.63917L65.6355 12.6392L67.5005 13.3613L69.4365 8.36132L67.5714 7.63917ZM66.568 14.0002H67.7009V12.0002H66.568V14.0002ZM68.6416 13.3395L69.0431 12.226L67.1617 11.5476L66.7602 12.661L68.6416 13.3395ZM68.1024 12.8868H70.0169V10.8868H68.1024V12.8868ZM69.0724 12.2153L69.4596 13.3287L71.3486 12.6718L70.9614 11.5583L69.0724 12.2153ZM70.4041 14.0002H71.5729V12.0002H70.4041V14.0002ZM72.5068 12.6427L70.5923 7.64266L68.7245 8.35782L70.639 13.3578L72.5068 12.6427ZM69.6584 7.00024H68.504V9.00024H69.6584V7.00024ZM71.0174 8.00024V13.0002H73.0174V8.00024H71.0174ZM72.0174 14.0002H73.0715V12.0002H72.0174V14.0002ZM74.0715 13.0002V9.49184H72.0715V13.0002H74.0715ZM73.0715 10.4918H73.0858V8.49184H73.0715V10.4918ZM72.1442 9.82861L73.399 13.337L75.2822 12.6635L74.0274 9.15507L72.1442 9.82861ZM74.3406 14.0002H75.2082V12.0002H74.3406V14.0002ZM76.1509 13.3341L77.4057 9.79064L75.5204 9.12302L74.2656 12.6664L76.1509 13.3341ZM76.4631 10.4568H76.4774V8.45683H76.4631V10.4568ZM75.4774 9.45683V13.0002H77.4774V9.45683H75.4774ZM76.4774 14.0002H77.5314V12.0002H76.4774V14.0002ZM78.5314 13.0002V8.00024H76.5314V13.0002H78.5314ZM77.5314 7.00024H75.9468V9.00024H77.5314V7.00024ZM74.997 7.6873L73.8641 11.1257L75.7636 11.7516L76.8966 8.31319L74.997 7.6873ZM74.8139 10.4386H74.7995V12.4386H74.8139V10.4386ZM75.7439 11.1097L74.5465 7.67136L72.6577 8.32913L73.8552 11.7675L75.7439 11.1097ZM73.6021 7.00024H72.0174V9.00024H73.6021V7.00024ZM77.5209 8.00024V13.0002H79.5209V8.00024H77.5209ZM78.5209 14.0002H82.4073V12.0002H78.5209V14.0002ZM83.4073 13.0002V12.0759H81.4073V13.0002H83.4073ZM82.4073 11.0759H79.6467V13.0759H82.4073V11.0759ZM80.6467 12.0759V10.8504H78.6467V12.0759H80.6467ZM79.6467 11.8504H82.1276V9.85038H79.6467V11.8504ZM83.1276 10.8504V9.99604H81.1276V10.8504H83.1276ZM82.1276 8.99604H79.6467V10.996H82.1276V8.99604ZM80.6467 9.99604V8.92461H78.6467V9.99604H80.6467ZM79.6467 9.92461H82.3499V7.92461H79.6467V9.92461ZM83.3499 8.92461V8.00024H81.3499V8.92461H83.3499ZM82.3499 7.00024H78.5209V9.00024H82.3499V7.00024ZM83.5959 9.81792L81.8104 12.437L83.463 13.5635L85.2484 10.9445L83.5959 9.81792ZM82.6367 14.0002H83.8987V12.0002H82.6367V14.0002ZM84.7336 13.5506L85.8737 11.8209L84.2038 10.7202L83.0637 12.4499L84.7336 13.5506ZM84.1991 11.8136L85.3176 13.5433L86.9971 12.4572L85.8785 10.7275L84.1991 11.8136ZM86.1573 14.0002H87.4982V12.0002H86.1573V14.0002ZM88.3238 12.4359L86.5384 9.8239L84.8872 10.9525L86.6726 13.5645L88.3238 12.4359ZM86.5368 10.9548L88.1788 8.56684L86.5308 7.43365L84.8888 9.8216L86.5368 10.9548ZM87.3548 7.00024H86.1215V9.00024H87.3548V7.00024ZM85.2835 7.45456L84.2438 9.0512L85.9198 10.1426L86.9595 8.54593L85.2835 7.45456ZM85.9284 9.06462L84.9245 7.46798L83.2314 8.53251L84.2352 10.1291L85.9284 9.06462ZM84.0779 7.00024H82.7729V9.00024H84.0779V7.00024ZM81.9509 8.56965L83.6001 10.9506L85.2442 9.81179L83.595 7.43084L81.9509 8.56965Z" fill="white" mask="url(#path-15-outside-1)"/>
</g>
<g clip-path="url(#clip3)">
<path d="M183.5 1.50024C183.5 0.94796 183.948 0.500244 184.5 0.500244H213.5C214.052 0.500244 214.5 0.94796 214.5 1.50024V19.5002C214.5 20.0525 214.052 20.5002 213.5 20.5002H184.5C183.948 20.5002 183.5 20.0525 183.5 19.5002V1.50024Z" fill="#F4F6F7" stroke="#8A5137"/>
<path fill-rule="evenodd" clip-rule="evenodd" d="M183 1.50024C183 0.671818 183.672 0.000244141 184.5 0.000244141H213.5C214.328 0.000244141 215 0.671817 215 1.50024V19.5002C215 20.3287 214.328 21.0002 213.5 21.0002H184.5C183.672 21.0002 183 20.3287 183 19.5002V1.50024Z" fill="#E5E5E5" fill-opacity="0.01"/>
<path fill-rule="evenodd" clip-rule="evenodd" d="M203.746 6.00024C203.645 6.0005 203.543 6.00359 203.444 6.01374C203.053 6.05338 202.686 6.22745 202.423 6.49603C202.227 6.69527 202.091 6.94202 202.034 7.20586C202.005 7.33611 202.002 7.4667 202.002 7.59868V8.47477V8.89944V9.02424C202.002 9.05765 201.993 9.06028 202.033 9.06028H202.657H203.279H203.905C204.109 9.06028 204.315 9.05317 204.519 9.07026C204.72 9.08714 204.924 9.13997 205.086 9.25402C205.314 9.41443 205.407 9.69113 205.329 9.94567C205.254 10.19 205.03 10.3538 204.773 10.4219C204.745 10.4294 204.716 10.4359 204.687 10.4414C204.67 10.4446 204.648 10.444 204.632 10.4505C204.625 10.4538 204.606 10.4578 204.62 10.4701C204.623 10.4732 204.638 10.4732 204.649 10.4731C204.654 10.4731 204.657 10.4731 204.66 10.4732C204.74 10.4804 204.82 10.4933 204.898 10.513C205.137 10.5732 205.369 10.7028 205.48 10.9154C205.611 11.167 205.544 11.4786 205.332 11.6738C205.166 11.8276 204.933 11.906 204.703 11.9321C204.587 11.9451 204.471 11.9424 204.355 11.9424H203.729H203.103H202.481H202.169H202.09C202.073 11.9424 202.022 11.9342 202.007 11.9424C201.999 11.9472 202.002 11.9542 202.002 11.9669V12.5015V13.445V14.3984V14.9627C202.002 14.9684 201.998 14.9931 202.002 14.9977C202.007 15.0031 202.049 14.9983 202.059 14.9983H202.137H202.45H203.072H203.698H204.322C204.693 14.9983 205.047 14.9092 205.348 14.7008C205.757 14.4183 205.998 13.9692 206 13.4978C206 13.4796 206 13.4613 206 13.4431V13.4164C206 13.376 206 13.3356 206 13.2953V12.7983C206 12.5578 206 12.3172 206 12.0767C206 11.7812 206 11.4857 206 11.1902C206 10.8641 206 10.538 206 10.212C206 9.87456 206 9.53711 206 9.19971C206 8.87432 206 8.54897 206 8.22358C206 7.93342 206 7.64331 206 7.35316C206 7.11779 206 6.88242 206 6.64705V6.17686C206 6.11945 206 6.06205 206 6.0046H205.993C205.795 6.0049 205.596 6.0046 205.397 6.0046H204.773H204.147C204.024 6.0046 203.898 6.00054 203.773 6.00024H203.746ZM203.002 9.61078C202.998 9.62376 203.002 9.65246 203.002 9.66643V10.1664V10.4C203.002 10.4195 202.996 10.4866 203.005 10.4965C203.013 10.5049 203.049 10.4965 203.059 10.4965H203.118H203.23H203.453C203.526 10.4965 203.599 10.4984 203.673 10.4965C203.763 10.4941 203.851 10.4551 203.916 10.3593C203.988 10.251 204.015 10.0916 203.992 9.94538C203.982 9.8807 203.963 9.82007 203.934 9.76822C203.879 9.66887 203.797 9.61379 203.709 9.60362C203.668 9.59879 203.626 9.60102 203.585 9.60102H203.362H203.135H203.024C203.018 9.60102 203.014 9.60024 203.011 9.60024C203.007 9.60024 203.005 9.60201 203.002 9.61078ZM203.449 10.5006H203.002C203.002 10.5089 203.002 10.5171 203.002 10.5254V10.9728V11.2369V11.3334C203.002 11.3471 202.998 11.3762 203.002 11.3889C203.008 11.408 203.063 11.3972 203.081 11.3972H203.194H203.418H203.643C203.716 11.3972 203.786 11.3907 203.851 11.3354C203.929 11.2681 203.983 11.1507 203.996 11.0199C204.012 10.8703 203.977 10.7154 203.899 10.6139C203.836 10.5318 203.757 10.5015 203.674 10.5006C203.649 10.5003 203.624 10.5002 203.599 10.5002C203.549 10.5002 203.499 10.5006 203.449 10.5006Z" fill="url(#paint1_linear)"/>
<mask id="mask1" mask-type="alpha" maskUnits="userSpaceOnUse" x="202" y="6" width="4" height="10">
<path fill-rule="evenodd" clip-rule="evenodd" d="M203.746 6.00024C203.645 6.0005 203.543 6.00359 203.444 6.01374C203.053 6.05338 202.686 6.22745 202.423 6.49603C202.227 6.69527 202.091 6.94202 202.034 7.20586C202.005 7.33611 202.002 7.4667 202.002 7.59868V8.47477V8.89944V9.02424C202.002 9.05765 201.993 9.06028 202.033 9.06028H202.657H203.279H203.905C204.109 9.06028 204.315 9.05317 204.519 9.07026C204.72 9.08714 204.924 9.13997 205.086 9.25402C205.314 9.41443 205.407 9.69113 205.329 9.94567C205.254 10.19 205.03 10.3538 204.773 10.4219C204.745 10.4294 204.716 10.4359 204.687 10.4414C204.67 10.4446 204.648 10.444 204.632 10.4505C204.625 10.4538 204.606 10.4578 204.62 10.4701C204.623 10.4732 204.638 10.4732 204.649 10.4731C204.654 10.4731 204.657 10.4731 204.66 10.4732C204.74 10.4804 204.82 10.4933 204.898 10.513C205.137 10.5732 205.369 10.7028 205.48 10.9154C205.611 11.167 205.544 11.4786 205.332 11.6738C205.166 11.8276 204.933 11.906 204.703 11.9321C204.587 11.9451 204.471 11.9424 204.355 11.9424H203.729H203.103H202.481H202.169H202.09C202.073 11.9424 202.022 11.9342 202.007 11.9424C201.999 11.9472 202.002 11.9542 202.002 11.9669V12.5015V13.445V14.3984V14.9627C202.002 14.9684 201.998 14.9931 202.002 14.9977C202.007 15.0031 202.049 14.9983 202.059 14.9983H202.137H202.45H203.072H203.698H204.322C204.693 14.9983 205.047 14.9092 205.348 14.7008C205.757 14.4183 205.998 13.9692 206 13.4978C206 13.4796 206 13.4613 206 13.4431V13.4164C206 13.376 206 13.3356 206 13.2953V12.7983C206 12.5578 206 12.3172 206 12.0767C206 11.7812 206 11.4857 206 11.1902C206 10.8641 206 10.538 206 10.212C206 9.87456 206 9.53711 206 9.19971C206 8.87432 206 8.54897 206 8.22358C206 7.93342 206 7.64331 206 7.35316C206 7.11779 206 6.88242 206 6.64705V6.17686C206 6.11945 206 6.06205 206 6.0046H205.993C205.795 6.0049 205.596 6.0046 205.397 6.0046H204.773H204.147C204.024 6.0046 203.898 6.00054 203.773 6.00024H203.746ZM203.002 9.61078C202.998 9.62376 203.002 9.65246 203.002 9.66643V10.1664V10.4C203.002 10.4195 202.996 10.4866 203.005 10.4965C203.013 10.5049 203.049 10.4965 203.059 10.4965H203.118H203.23H203.453C203.526 10.4965 203.599 10.4984 203.673 10.4965C203.763 10.4941 203.851 10.4551 203.916 10.3593C203.988 10.251 204.015 10.0916 203.992 9.94538C203.982 9.8807 203.963 9.82007 203.934 9.76822C203.879 9.66887 203.797 9.61379 203.709 9.60362C203.668 9.59879 203.626 9.60102 203.585 9.60102H203.362H203.135H203.024C203.018 9.60102 203.014 9.60024 203.011 9.60024C203.007 9.60024 203.005 9.60201 203.002 9.61078ZM203.449 10.5006H203.002C203.002 10.5089 203.002 10.5171 203.002 10.5254V10.9728V11.2369V11.3334C203.002 11.3471 202.998 11.3762 203.002 11.3889C203.008 11.408 203.063 11.3972 203.081 11.3972H203.194H203.418H203.643C203.716 11.3972 203.786 11.3907 203.851 11.3354C203.929 11.2681 203.983 11.1507 203.996 11.0199C204.012 10.8703 203.977 10.7154 203.899 10.6139C203.836 10.5318 203.757 10.5015 203.674 10.5006C203.649 10.5003 203.624 10.5002 203.599 10.5002C203.549 10.5002 203.499 10.5006 203.449 10.5006Z" fill="white"/>
</mask>
<g mask="url(#mask1)">
</g>
<path fill-rule="evenodd" clip-rule="evenodd" d="M193.359 6.02026C193.129 6.05483 192.908 6.1368 192.715 6.25762C192.27 6.53607 192.004 7.00753 192.002 7.50366C192.001 7.64953 192.002 7.7954 192.002 7.94131V8.87039V9.95059V10.8416V11.1105V11.1815C192.002 11.209 192.001 11.2032 192.035 11.2181C192.073 11.2346 192.11 11.2506 192.148 11.2662C192.452 11.3905 192.771 11.4851 193.101 11.5224C193.338 11.5491 193.592 11.5566 193.816 11.469C193.995 11.3989 194.138 11.2695 194.212 11.1017C194.259 10.9939 194.272 10.88 194.272 10.7646V9.48586V9.19797V9.10614C194.272 9.09696 194.267 9.06831 194.272 9.06061C194.279 9.051 194.335 9.05714 194.351 9.05714H194.472H194.71H195.667V9.0835V10.3459C195.667 10.4941 195.667 10.6423 195.667 10.7905C195.666 10.9632 195.639 11.1365 195.563 11.2951C195.486 11.4533 195.364 11.5869 195.214 11.6886C194.848 11.9353 194.363 11.9996 193.921 12.0181C193.605 12.0313 193.287 12.0199 192.972 11.9908C192.647 11.9607 192.318 11.916 192.002 11.8372V11.9396V12.6415V13.6656V14.5907V14.885V14.9676C192.002 14.972 191.998 14.9937 192.002 14.9973C192.008 15.0039 192.068 14.9973 192.08 14.9973H192.16H192.324H192.648H193.298H193.948C194.224 14.9973 194.507 15.0149 194.776 14.9519C195.247 14.8417 195.648 14.5335 195.851 14.1255C195.963 13.9015 196 13.6635 196 13.4196V13.0177V12.3406V11.4631V10.4645V9.41104V8.38154V7.45428V6.69645V6.18686V6.00037H195.838H195.163H194.487H193.814C193.784 6.00037 193.754 6.00024 193.724 6.00024C193.602 6.00024 193.48 6.00206 193.359 6.02026Z" fill="url(#paint2_linear)"/>
<mask id="mask2" mask-type="alpha" maskUnits="userSpaceOnUse" x="192" y="6" width="4" height="10">
<path fill-rule="evenodd" clip-rule="evenodd" d="M193.359 6.02026C193.129 6.05483 192.908 6.1368 192.715 6.25762C192.27 6.53607 192.004 7.00753 192.002 7.50366C192.001 7.64953 192.002 7.7954 192.002 7.94131V8.87039V9.95059V10.8416V11.1105V11.1815C192.002 11.209 192.001 11.2032 192.035 11.2181C192.073 11.2346 192.11 11.2506 192.148 11.2662C192.452 11.3905 192.771 11.4851 193.101 11.5224C193.338 11.5491 193.592 11.5566 193.816 11.469C193.995 11.3989 194.138 11.2695 194.212 11.1017C194.259 10.9939 194.272 10.88 194.272 10.7646V9.48586V9.19797V9.10614C194.272 9.09696 194.267 9.06831 194.272 9.06061C194.279 9.051 194.335 9.05714 194.351 9.05714H194.472H194.71H195.667V9.0835V10.3459C195.667 10.4941 195.667 10.6423 195.667 10.7905C195.666 10.9632 195.639 11.1365 195.563 11.2951C195.486 11.4533 195.364 11.5869 195.214 11.6886C194.848 11.9353 194.363 11.9996 193.921 12.0181C193.605 12.0313 193.287 12.0199 192.972 11.9908C192.647 11.9607 192.318 11.916 192.002 11.8372V11.9396V12.6415V13.6656V14.5907V14.885V14.9676C192.002 14.972 191.998 14.9937 192.002 14.9973C192.008 15.0039 192.068 14.9973 192.08 14.9973H192.16H192.324H192.648H193.298H193.948C194.224 14.9973 194.507 15.0149 194.776 14.9519C195.247 14.8417 195.648 14.5335 195.851 14.1255C195.963 13.9015 196 13.6635 196 13.4196V13.0177V12.3406V11.4631V10.4645V9.41104V8.38154V7.45428V6.69645V6.18686V6.00037H195.838H195.163H194.487H193.814C193.784 6.00037 193.754 6.00024 193.724 6.00024C193.602 6.00024 193.48 6.00206 193.359 6.02026Z" fill="white"/>
</mask>
<g mask="url(#mask2)">
</g>
<path fill-rule="evenodd" clip-rule="evenodd" d="M198.519 6.00397C198.344 6.01425 198.171 6.05085 198.008 6.1127C197.65 6.24924 197.352 6.50407 197.176 6.8238C197.061 7.03315 197.003 7.26585 197.002 7.50041C197.002 7.53836 197.002 7.57632 197.002 7.61431V8.27984V9.46298C197.013 9.45427 197.024 9.44568 197.036 9.43717C197.076 9.40713 197.118 9.37904 197.161 9.35272C197.429 9.18894 197.741 9.09722 198.055 9.04306C198.31 8.99897 198.57 8.98002 198.83 8.97541C199.085 8.97092 199.341 8.97896 199.595 9.00439C199.854 9.03028 200.111 9.07069 200.366 9.12121C200.397 9.12743 200.429 9.13377 200.46 9.14037C200.477 9.14393 200.541 9.14875 200.549 9.1606C200.556 9.16906 200.549 9.20282 200.549 9.21259V9.33462V9.79465C200.513 9.77777 200.477 9.76122 200.44 9.74523C200.163 9.62401 199.871 9.53398 199.568 9.48972C199.16 9.43019 198.699 9.43184 198.348 9.65731C198.008 9.87495 197.889 10.2612 197.926 10.6284C197.962 10.9858 198.175 11.2922 198.535 11.4351C198.89 11.5762 199.303 11.5572 199.675 11.4891C199.98 11.4333 200.271 11.331 200.549 11.2028V11.2482V11.7843C200.549 11.7943 200.556 11.8282 200.549 11.8368C200.541 11.8483 200.476 11.8532 200.46 11.8566C200.395 11.8703 200.33 11.8832 200.264 11.8953C200.008 11.9431 199.748 11.981 199.488 12.0026C199.232 12.0237 198.974 12.0279 198.718 12.0189C198.457 12.0099 198.195 11.985 197.94 11.9325C197.602 11.8635 197.267 11.7447 197.002 11.5346V11.6334V12.3239V13.3541V14.3571V14.9518C197.002 14.9589 196.997 14.9882 197.002 14.9939C197.013 15.0062 197.104 14.9961 197.125 14.9961H197.457H198.125H198.789C199.023 14.9961 199.262 15.0076 199.495 14.9922C199.919 14.9642 200.321 14.7789 200.6 14.4826C200.868 14.1988 201 13.8396 201 13.4653V13.1295V12.4877V11.6208V10.6092V9.53749V8.4773V7.51666V6.72814V6.19609V6.00092H200.877H199.847H198.82C198.772 6.00092 198.723 6.00024 198.674 6.00024C198.623 6.00024 198.571 6.00101 198.519 6.00397Z" fill="url(#paint3_linear)"/>
<mask id="mask3" mask-type="alpha" maskUnits="userSpaceOnUse" x="197" y="6" width="4" height="10">
<path fill-rule="evenodd" clip-rule="evenodd" d="M198.519 6.00397C198.344 6.01425 198.171 6.05085 198.008 6.1127C197.65 6.24924 197.352 6.50407 197.176 6.8238C197.061 7.03315 197.003 7.26585 197.002 7.50041C197.002 7.53836 197.002 7.57632 197.002 7.61431V8.27984V9.46298C197.013 9.45427 197.024 9.44568 197.036 9.43717C197.076 9.40713 197.118 9.37904 197.161 9.35272C197.429 9.18894 197.741 9.09722 198.055 9.04306C198.31 8.99897 198.57 8.98002 198.83 8.97541C199.085 8.97092 199.341 8.97896 199.595 9.00439C199.854 9.03028 200.111 9.07069 200.366 9.12121C200.397 9.12743 200.429 9.13377 200.46 9.14037C200.477 9.14393 200.541 9.14875 200.549 9.1606C200.556 9.16906 200.549 9.20282 200.549 9.21259V9.33462V9.79465C200.513 9.77777 200.477 9.76122 200.44 9.74523C200.163 9.62401 199.871 9.53398 199.568 9.48972C199.16 9.43019 198.699 9.43184 198.348 9.65731C198.008 9.87495 197.889 10.2612 197.926 10.6284C197.962 10.9858 198.175 11.2922 198.535 11.4351C198.89 11.5762 199.303 11.5572 199.675 11.4891C199.98 11.4333 200.271 11.331 200.549 11.2028V11.2482V11.7843C200.549 11.7943 200.556 11.8282 200.549 11.8368C200.541 11.8483 200.476 11.8532 200.46 11.8566C200.395 11.8703 200.33 11.8832 200.264 11.8953C200.008 11.9431 199.748 11.981 199.488 12.0026C199.232 12.0237 198.974 12.0279 198.718 12.0189C198.457 12.0099 198.195 11.985 197.94 11.9325C197.602 11.8635 197.267 11.7447 197.002 11.5346V11.6334V12.3239V13.3541V14.3571V14.9518C197.002 14.9589 196.997 14.9882 197.002 14.9939C197.013 15.0062 197.104 14.9961 197.125 14.9961H197.457H198.125H198.789C199.023 14.9961 199.262 15.0076 199.495 14.9922C199.919 14.9642 200.321 14.7789 200.6 14.4826C200.868 14.1988 201 13.8396 201 13.4653V13.1295V12.4877V11.6208V10.6092V9.53749V8.4773V7.51666V6.72814V6.19609V6.00092H200.877H199.847H198.82C198.772 6.00092 198.723 6.00024 198.674 6.00024C198.623 6.00024 198.571 6.00101 198.519 6.00397Z" fill="white"/>
</mask>
<g mask="url(#mask3)">
</g>
</g>
<g clip-path="url(#clip4)">
<path fill-rule="evenodd" clip-rule="evenodd" d="M244 1.50024C244 0.671818 244.672 0.000244141 245.5 0.000244141H274.5C275.328 0.000244141 276 0.671817 276 1.50024V19.5002C276 20.3287 275.328 21.0002 274.5 21.0002H245.5C244.672 21.0002 244 20.3287 244 19.5002V1.50024Z" fill="url(#paint4_linear)"/>
<path fill-rule="evenodd" clip-rule="evenodd" d="M244 1.50024C244 0.671818 244.672 0.000244141 245.5 0.000244141H274.5C275.328 0.000244141 276 0.671817 276 1.50024V19.5002C276 20.3287 275.328 21.0002 274.5 21.0002H245.5C244.672 21.0002 244 20.3287 244 19.5002V1.50024Z" fill="#E5E5E5" fill-opacity="0.01"/>
<path fill-rule="evenodd" clip-rule="evenodd" d="M251.016 11.3334C250.806 11.5247 250.532 11.6082 250.099 11.6082H249.92V9.32239H250.099C250.532 9.32239 250.795 9.40038 251.016 9.60202C251.248 9.80955 251.387 10.1314 251.387 10.4624C251.387 10.7943 251.248 11.1259 251.016 11.3334ZM250.234 8.73682H249.25V12.1932H250.228C250.749 12.1932 251.124 12.0699 251.454 11.7942C251.846 11.468 252.078 10.9762 252.078 10.4675C252.078 9.44738 251.32 8.73682 250.234 8.73682Z" fill="#212D34"/>
<path fill-rule="evenodd" clip-rule="evenodd" d="M252.386 12.1934H253.056V8.73682H252.386V12.1934Z" fill="#212D34"/>
<path fill-rule="evenodd" clip-rule="evenodd" d="M254.694 10.0632C254.292 9.91347 254.174 9.81478 254.174 9.62796C254.174 9.41029 254.385 9.24483 254.673 9.24483C254.874 9.24483 255.039 9.32789 255.214 9.52473L255.564 9.06281C255.276 8.80922 254.932 8.67969 254.555 8.67969C253.947 8.67969 253.484 9.10435 253.484 9.67002C253.484 10.1462 253.699 10.3901 254.329 10.6179C254.591 10.7111 254.725 10.7731 254.792 10.8147C254.926 10.9027 254.993 11.0273 254.993 11.1725C254.993 11.4525 254.772 11.66 254.473 11.66C254.153 11.66 253.895 11.4991 253.741 11.1989L253.308 11.6184C253.617 12.0744 253.988 12.2765 254.498 12.2765C255.194 12.2765 255.683 11.8105 255.683 11.1415C255.683 10.5923 255.457 10.3437 254.694 10.0632Z" fill="#212D34"/>
<path fill-rule="evenodd" clip-rule="evenodd" d="M255.894 10.4675C255.894 11.4835 256.687 12.2712 257.707 12.2712C257.995 12.2712 258.243 12.2142 258.547 12.0698V11.2762C258.279 11.546 258.042 11.6548 257.738 11.6548C257.063 11.6548 256.584 11.1624 256.584 10.4624C256.584 9.79886 257.079 9.27538 257.707 9.27538C258.027 9.27538 258.269 9.39009 258.547 9.66425V8.87102C258.253 8.72092 258.011 8.65869 257.723 8.65869C256.708 8.65869 255.894 9.46247 255.894 10.4675Z" fill="#212D34"/>
<path fill-rule="evenodd" clip-rule="evenodd" d="M263.86 11.0585L262.944 8.73682H262.212L263.67 12.282H264.03L265.514 8.73682H264.788L263.86 11.0585Z" fill="#212D34"/>
<path fill-rule="evenodd" clip-rule="evenodd" d="M265.817 12.1931H267.717V11.608H266.487V10.6749H267.672V10.0895H266.487V9.32228H267.717V8.73657H265.817V12.1931Z" fill="#212D34"/>
<path fill-rule="evenodd" clip-rule="evenodd" d="M269.026 10.328H268.831V9.28115H269.037C269.454 9.28115 269.681 9.45702 269.681 9.79341C269.681 10.1409 269.454 10.328 269.026 10.328ZM270.371 9.75709C270.371 9.10995 269.928 8.73657 269.155 8.73657H268.161V12.1931H268.831V10.8046H268.918L269.845 12.1931H270.669L269.588 10.737C270.093 10.6336 270.371 10.2863 270.371 9.75709Z" fill="#212D34"/>
<g filter="url(#filter0_i)">
<path fill-rule="evenodd" clip-rule="evenodd" d="M262.421 10.4769C262.421 11.4925 261.603 12.3158 260.593 12.3158C259.584 12.3158 258.766 11.4925 258.766 10.4769C258.766 9.46133 259.584 8.63818 260.593 8.63818C261.603 8.63818 262.421 9.46133 262.421 10.4769Z" fill="url(#paint5_linear)"/>
</g>
</g>
<g clip-path="url(#clip5)">
<path fill-rule="evenodd" clip-rule="evenodd" d="M305 1.50024C305 0.671818 305.672 0.000244141 306.5 0.000244141H335.5C336.328 0.000244141 337 0.671817 337 1.50024V19.5002C337 20.3287 336.328 21.0002 335.5 21.0002H306.5C305.672 21.0002 305 20.3287 305 19.5002V1.50024Z" fill="#F4F6F7"/>
<path fill-rule="evenodd" clip-rule="evenodd" d="M305 1.50024C305 0.671818 305.672 0.000244141 306.5 0.000244141H335.5C336.328 0.000244141 337 0.671817 337 1.50024V19.5002C337 20.3287 336.328 21.0002 335.5 21.0002H306.5C305.672 21.0002 305 20.3287 305 19.5002V1.50024Z" fill="#E5E5E5" fill-opacity="0.01"/>
<path fill-rule="evenodd" clip-rule="evenodd" d="M322.313 15.4804C325.016 15.4935 327.484 13.2559 327.484 10.5337C327.484 7.55688 325.016 5.49925 322.313 5.50024H319.987C317.252 5.49925 315 7.55749 315 10.5337C315 13.2565 317.252 15.4935 319.987 15.4804H322.313Z" fill="url(#paint6_linear)"/>
<path fill-rule="evenodd" clip-rule="evenodd" d="M319.997 5.91602C317.497 5.91681 315.472 7.96136 315.471 10.4847C315.472 13.0077 317.497 15.0521 319.997 15.0528C322.497 15.0521 324.523 13.0077 324.523 10.4847C324.523 7.96136 322.497 5.91681 319.997 5.91602ZM317.128 10.4847C317.13 9.25168 317.893 8.20019 318.97 7.78235V13.1865C317.893 12.7689 317.13 11.718 317.128 10.4847ZM321.023 13.1877V7.78217C322.1 8.19901 322.864 9.25108 322.866 10.4847C322.864 11.7188 322.1 12.7701 321.023 13.1877Z" fill="#F4F6F7"/>
</g>
<defs>
<filter id="filter0_i" x="258.766" y="8.63818" width="3.65487" height="3.67757" filterUnits="userSpaceOnUse" color-interpolation-filters="sRGB">
<feFlood flood-opacity="0" result="BackgroundImageFix"/>
<feBlend mode="normal" in="SourceGraphic" in2="BackgroundImageFix" result="shape"/>
<feColorMatrix in="SourceAlpha" type="matrix" values="0 0 0 0 0 0 0 0 0 0 0 0 0 0 0 0 0 0 127 0" result="hardAlpha"/>
<feOffset dx="1" dy="1"/>
<feComposite in2="hardAlpha" operator="arithmetic" k2="-1" k3="1"/>
<feColorMatrix type="matrix" values="0 0 0 0 0.314068 0 0 0 0 0.00146228 0 0 0 0 0.00146228 0 0 0 0.5 0"/>
<feBlend mode="normal" in2="shape" result="effect1_innerShadow"/>
</filter>
<radialGradient id="paint0_radial" cx="0" cy="0" r="1" gradientUnits="userSpaceOnUse" gradientTransform="translate(71.7461 3.98071) rotate(90) scale(21 32)">
<stop stop-color="#71C8F2"/>
<stop offset="1" stop-color="#0071BD"/>
</radialGradient>
<linearGradient id="paint1_linear" x1="206" y1="5.61101" x2="202.135" y2="5.61101" gradientUnits="userSpaceOnUse">
<stop stop-color="#43C311"/>
<stop offset="1" stop-color="#288C00"/>
</linearGradient>
<linearGradient id="paint2_linear" x1="192.01" y1="15.0227" x2="196.05" y2="15.0227" gradientUnits="userSpaceOnUse">
<stop stop-color="#21469E"/>
<stop offset="1" stop-color="#1E81EB"/>
</linearGradient>
<linearGradient id="paint3_linear" x1="201" y1="6.00024" x2="197" y2="6.00024" gradientUnits="userSpaceOnUse">
<stop stop-color="#F42D3E"/>
<stop offset="1" stop-color="#9C0017"/>
</linearGradient>
<linearGradient id="paint4_linear" x1="228" y1="10.5002" x2="247.266" y2="39.8572" gradientUnits="userSpaceOnUse">
<stop stop-color="#EDF1F3"/>
<stop offset="1" stop-color="#D3DADF"/>
</linearGradient>
<linearGradient id="paint5_linear" x1="262.832" y1="10.8284" x2="260.663" y2="8.2637" gradientUnits="userSpaceOnUse">
<stop stop-color="#FFA700"/>
<stop offset="1" stop-color="#E75A10"/>
</linearGradient>
<linearGradient id="paint6_linear" x1="330.074" y1="13.5705" x2="326.873" y2="3.10779" gradientUnits="userSpaceOnUse">
<stop stop-color="#009BE0"/>
<stop offset="1" stop-color="#006BA8"/>
</linearGradient>
<clipPath id="clip0">
<rect width="32" height="21" fill="white" transform="translate(0 0.000244141)"/>
</clipPath>
<clipPath id="clip1">
<rect width="32" height="21" fill="white" transform="translate(122 0.000244141)"/>
</clipPath>
<clipPath id="clip2">
<rect width="32" height="21" fill="white" transform="translate(61 0.000244141)"/>
</clipPath>
<clipPath id="clip3">
<rect width="32" height="21" fill="white" transform="translate(183 0.000244141)"/>
</clipPath>
<clipPath id="clip4">
<rect width="32" height="21" fill="white" transform="translate(244 0.000244141)"/>
</clipPath>
<clipPath id="clip5">
<rect width="32" height="21" fill="white" transform="translate(305 0.000244141)"/>
</clipPath>
</defs>
</svg>
